<svg xmlns="http://www.w3.org/2000/svg"  viewBox="0 0 48 48" width="24px" height="24px" baseProfile="basic"><path fill="#f2ca00" d="M38.313,15.929l-6.242-6.243c-0.188-0.188-0.441-0.293-0.707-0.293s-0.52,0.105-0.707,0.293	L8.696,31.647c-0.188,0.188-0.293,0.442-0.293,0.707s0.105,0.52,0.293,0.707l6.243,6.243c0.195,0.195,0.451,0.293,0.707,0.293	s0.512-0.098,0.707-0.293l21.96-21.96C38.704,16.953,38.704,16.32,38.313,15.929z"/><path fill="#324561" d="M6.15,42.849c-0.261,0-0.517-0.102-0.707-0.293c-0.271-0.27-0.362-0.67-0.239-1.031l3.253-9.495	c0.179-0.522,0.746-0.802,1.271-0.622c0.522,0.179,0.801,0.748,0.622,1.27l-2.592,7.563l7.564-2.591	c0.523-0.18,1.091,0.1,1.271,0.622c0.179,0.522-0.1,1.091-0.622,1.271l-9.496,3.252C6.368,42.832,6.259,42.849,6.15,42.849z"/><path fill="#324561" d="M37.606,17.636c-0.256,0-0.512-0.098-0.707-0.293c-0.391-0.39-0.391-1.023,0-1.414l3.414-3.415	c0.376-0.375,0.582-0.877,0.582-1.414s-0.207-1.039-0.582-1.415l-2-2c-0.749-0.75-2.077-0.75-2.828,0l-3.414,3.415	c-0.391,0.391-1.023,0.391-1.414,0c-0.391-0.39-0.391-1.023,0-1.414l3.414-3.415c0.753-0.753,1.758-1.168,2.828-1.168	c1.071,0,2.075,0.415,2.828,1.168l2,2c0.753,0.753,1.168,1.758,1.168,2.829s-0.415,2.075-1.168,2.828l-3.414,3.415	C38.118,17.539,37.862,17.636,37.606,17.636z"/></svg>